<?xml version="1.0" encoding="utf-8"?><svg viewBox="0 0 67 30" xmlns="http://www.w3.org/2000/svg" xmlns:xlink="http://www.w3.org/1999/xlink"><style>:root>svg{display:none}:root>svg:target{display:block}</style><svg fill="none" viewBox="0 0 30 30" id="airb" xmlns="http://www.w3.org/2000/svg"><path d="M28.893.073l-3.175 1.445c-.203.094-.39.222-.55.382l-5.174 5.176L2.18 4.94a1.058 1.058 0 00-.875.303l-.992.992a1.06 1.06 0 00.316 1.717l12.767 5.723-3.665 3.666H3.327c-.281 0-.55.112-.75.31l-.535.537a1.06 1.06 0 00.331 1.724l5.402 2.314 2.314 5.402a1.06 1.06 0 001.724.331l.537-.538c.2-.2.31-.469.31-.75v-6.403l3.666-3.665 5.723 12.77a1.06 1.06 0 001.717.316l.992-.992c.231-.231.34-.553.303-.875l-2.14-17.815 5.177-5.177c.16-.16.288-.344.382-.55l1.445-3.175c.303-.653-.373-1.332-1.032-1.032z" fill="#2F343A"/></svg><svg fill="none" viewBox="0 0 30 30" id="airw" xmlns="http://www.w3.org/2000/svg"><path d="M28.893.073l-3.175 1.445c-.203.094-.39.222-.55.382l-5.174 5.176L2.18 4.94a1.058 1.058 0 00-.875.303l-.992.992a1.06 1.06 0 00.316 1.717l12.767 5.723-3.665 3.666H3.327c-.281 0-.55.112-.75.31l-.535.537a1.06 1.06 0 00.331 1.724l5.402 2.314 2.314 5.402a1.06 1.06 0 001.724.331l.537-.538c.2-.2.31-.469.31-.75v-6.403l3.666-3.665 5.723 12.77a1.06 1.06 0 001.717.316l.992-.992c.231-.231.34-.553.303-.875l-2.14-17.815 5.177-5.177c.16-.16.288-.344.382-.55l1.445-3.175c.303-.653-.373-1.332-1.032-1.032z" fill="#fff"/></svg><svg fill="none" viewBox="0 0 67 24" id="arrow-next" xmlns="http://www.w3.org/2000/svg"><path d="M66.06 10.94a1.5 1.5 0 010 2.12l-9.545 9.547a1.5 1.5 0 11-2.122-2.122L62.88 12l-8.486-8.485a1.5 1.5 0 112.122-2.122l9.546 9.546zM0 10.5h65v3H0v-3z" fill="#C8A35F"/></svg><svg fill="none" viewBox="0 0 67 24" id="arrow-prev" xmlns="http://www.w3.org/2000/svg"><path d="M.94 10.94a1.5 1.5 0 000 2.12l9.545 9.547a1.5 1.5 0 102.122-2.122L4.12 12l8.486-8.485a1.5 1.5 0 10-2.122-2.122L.94 10.94zM67 10.5H2v3h65v-3z" fill="#C8A35F"/></svg><svg fill="none" viewBox="0 0 25 25" id="location" xmlns="http://www.w3.org/2000/svg"><path d="M12.483 0C7.43 0 3.32 4.11 3.32 9.162c0 2.321 1.463 5.6 4.347 9.747a65.361 65.361 0 004.269 5.475l.547.616.546-.616a65.488 65.488 0 004.27-5.475c2.884-4.147 4.346-7.426 4.346-9.747C21.645 4.11 17.535 0 12.483 0zm3.624 18.062a66.424 66.424 0 01-3.624 4.715 66.373 66.373 0 01-3.616-4.703c-2.673-3.842-4.085-6.923-4.085-8.912 0-4.246 3.454-7.7 7.7-7.7 4.247 0 7.701 3.454 7.701 7.7 0 1.986-1.41 5.064-4.076 8.9z" fill="#C8A35F"/><path d="M12.483 3.386a5.414 5.414 0 00-5.408 5.408 5.414 5.414 0 005.408 5.407 5.414 5.414 0 005.407-5.407 5.414 5.414 0 00-5.407-5.408zm0 9.354a3.95 3.95 0 01-3.946-3.946 3.95 3.95 0 013.946-3.946 3.95 3.95 0 013.946 3.946 3.95 3.95 0 01-3.946 3.946z" fill="#C8A35F"/></svg><svg fill="none" viewBox="0 0 30 30" id="mouse" xmlns="http://www.w3.org/2000/svg"><g opacity=".8" clip-path="url(#fclip0_4_31)" fill="#fff"><path d="M14.977 0C10.11 0 6.152 3.959 6.152 8.824v12.352c0 4.866 3.959 8.824 8.825 8.824s8.824-3.959 8.824-8.824V8.824C23.801 3.96 19.843 0 14.977 0zM22 21.176a7.032 7.032 0 01-7.024 7.024 7.033 7.033 0 01-7.025-7.024V8.824A7.032 7.032 0 0114.977 1.8 7.032 7.032 0 0122 8.824v12.352z"/><path d="M14.977 5.968a.9.9 0 00-.9.9v4.142a.9.9 0 001.8 0V6.868a.9.9 0 00-.9-.9z"/></g><defs><clipPath id="fclip0_4_31"><path fill="#fff" d="M0 0h30v30H0z"/></clipPath></defs></svg></svg>